<mxfile host="Electron" modified="2024-10-25T11:21:11.859Z" agent="Mozilla/5.0 (Windows NT 10.0; Win64; x64) AppleWebKit/537.36 (KHTML, like Gecko) draw.io/24.6.4 Chrome/124.0.6367.207 Electron/30.0.6 Safari/537.36" etag="mTIRGckuM8Vt26eMXo3P" version="24.6.4" type="device">
  <diagram id="C5RBs43oDa-KdzZeNtuy" name="Page-1">
    <mxGraphModel dx="1434" dy="844" grid="1" gridSize="10" guides="1" tooltips="1" connect="1" arrows="1" fold="1" page="1" pageScale="1" pageWidth="827" pageHeight="1169" math="0" shadow="0">
      <root>
        <mxCell id="WIyWlLk6GJQsqaUBKTNV-0" />
        <mxCell id="WIyWlLk6GJQsqaUBKTNV-1" parent="WIyWlLk6GJQsqaUBKTNV-0" />
        <mxCell id="YdfoZle_23-KYAX8LXXO-19" style="edgeStyle=orthogonalEdgeStyle;rounded=0;orthogonalLoop=1;jettySize=auto;html=1;exitX=0;exitY=0;exitDx=0;exitDy=0;entryX=0.5;entryY=0;entryDx=0;entryDy=0;curved=1;startArrow=classic;startFill=1;endArrow=none;endFill=0;" parent="WIyWlLk6GJQsqaUBKTNV-1" source="zkfFHV4jXpPFQw0GAbJ--0" target="YdfoZle_23-KYAX8LXXO-3" edge="1">
          <mxGeometry relative="1" as="geometry">
            <Array as="points">
              <mxPoint x="125" y="40" />
            </Array>
          </mxGeometry>
        </mxCell>
        <mxCell id="YdfoZle_23-KYAX8LXXO-20" style="edgeStyle=orthogonalEdgeStyle;rounded=0;orthogonalLoop=1;jettySize=auto;html=1;exitX=1;exitY=0;exitDx=0;exitDy=0;entryX=0.5;entryY=0;entryDx=0;entryDy=0;endArrow=none;endFill=0;curved=1;startArrow=classic;startFill=1;" parent="WIyWlLk6GJQsqaUBKTNV-1" source="zkfFHV4jXpPFQw0GAbJ--0" target="YdfoZle_23-KYAX8LXXO-11" edge="1">
          <mxGeometry relative="1" as="geometry">
            <Array as="points">
              <mxPoint x="665" y="40" />
            </Array>
          </mxGeometry>
        </mxCell>
        <mxCell id="zkfFHV4jXpPFQw0GAbJ--0" value="BaseStudent" style="swimlane;fontStyle=2;align=center;verticalAlign=top;childLayout=stackLayout;horizontal=1;startSize=26;horizontalStack=0;resizeParent=1;resizeLast=0;collapsible=1;marginBottom=0;rounded=0;shadow=0;strokeWidth=1;" parent="WIyWlLk6GJQsqaUBKTNV-1" vertex="1">
          <mxGeometry x="320" y="40" width="250" height="190" as="geometry">
            <mxRectangle x="230" y="140" width="160" height="26" as="alternateBounds" />
          </mxGeometry>
        </mxCell>
        <mxCell id="zkfFHV4jXpPFQw0GAbJ--1" value=" - id: Integer  &#xa; - git: String " style="text;align=left;verticalAlign=top;spacingLeft=4;spacingRight=4;overflow=hidden;rotatable=0;points=[[0,0.5],[1,0.5]];portConstraint=eastwest;" parent="zkfFHV4jXpPFQw0GAbJ--0" vertex="1">
          <mxGeometry y="26" width="250" height="44" as="geometry" />
        </mxCell>
        <mxCell id="zkfFHV4jXpPFQw0GAbJ--4" value="" style="line;html=1;strokeWidth=1;align=left;verticalAlign=middle;spacingTop=-1;spacingLeft=3;spacingRight=3;rotatable=0;labelPosition=right;points=[];portConstraint=eastwest;" parent="zkfFHV4jXpPFQw0GAbJ--0" vertex="1">
          <mxGeometry y="70" width="250" height="8" as="geometry" />
        </mxCell>
        <mxCell id="zkfFHV4jXpPFQw0GAbJ--5" value=" + initialize(id: Integer, git: String) &#xa; + id: Integer    &#xa; + git: String    &#xa; - validate_git(git: String): Boolean    &#xa; - valid_id(id: String): Boolean          &#xa; - id=(id: Integer): void                 &#xa; - git=(git: String): void " style="text;align=left;verticalAlign=top;spacingLeft=4;spacingRight=4;overflow=hidden;rotatable=0;points=[[0,0.5],[1,0.5]];portConstraint=eastwest;spacingBottom=0;" parent="zkfFHV4jXpPFQw0GAbJ--0" vertex="1">
          <mxGeometry y="78" width="250" height="112" as="geometry" />
        </mxCell>
        <mxCell id="YdfoZle_23-KYAX8LXXO-3" value="Student" style="swimlane;fontStyle=1;align=center;verticalAlign=top;childLayout=stackLayout;horizontal=1;startSize=26;horizontalStack=0;resizeParent=1;resizeParentMax=0;resizeLast=0;collapsible=1;marginBottom=0;whiteSpace=wrap;html=1;" parent="WIyWlLk6GJQsqaUBKTNV-1" vertex="1">
          <mxGeometry x="10" y="280" width="430" height="430" as="geometry">
            <mxRectangle x="10" y="280" width="80" height="30" as="alternateBounds" />
          </mxGeometry>
        </mxCell>
        <mxCell id="zkfFHV4jXpPFQw0GAbJ--2" value=" - surname: String &#xa; - name: String    &#xa; - patronymic: String &#xa; - phone: String   &#xa; - email: String   &#xa; - telegram: String " style="text;align=left;verticalAlign=top;spacingLeft=4;spacingRight=4;overflow=hidden;rotatable=0;points=[[0,0.5],[1,0.5]];portConstraint=eastwest;rounded=0;shadow=0;html=0;" parent="YdfoZle_23-KYAX8LXXO-3" vertex="1">
          <mxGeometry y="26" width="430" height="94" as="geometry" />
        </mxCell>
        <mxCell id="YdfoZle_23-KYAX8LXXO-5" value="" style="line;strokeWidth=1;fillColor=none;align=left;verticalAlign=middle;spacingTop=-1;spacingLeft=3;spacingRight=3;rotatable=0;labelPosition=right;points=[];portConstraint=eastwest;strokeColor=inherit;" parent="YdfoZle_23-KYAX8LXXO-3" vertex="1">
          <mxGeometry y="120" width="430" height="8" as="geometry" />
        </mxCell>
        <mxCell id="ov0ug4eRvDasPqKIlHjK-0" value="+ initialize(surname: String, name: String, patronymic: String, id: Integer, phone: String, email: String, git: String, telegram: String)&amp;nbsp;&lt;br style=&quot;padding: 0px; margin: 0px;&quot;&gt;&amp;nbsp;+ to_s: String&amp;nbsp; &amp;nbsp;&amp;nbsp;&lt;br style=&quot;padding: 0px; margin: 0px;&quot;&gt;&amp;nbsp;+ get_contacts(): String&amp;nbsp;&lt;br style=&quot;padding: 0px; margin: 0px;&quot;&gt;&amp;nbsp;+ parse(string: String): Student&amp;nbsp;&lt;br style=&quot;padding: 0px; margin: 0px;&quot;&gt;&amp;nbsp;+ has_git?(): Boolean&amp;nbsp;&lt;br style=&quot;padding: 0px; margin: 0px;&quot;&gt;&amp;nbsp;+ has_contact?(): Boolean&amp;nbsp;&lt;br style=&quot;padding: 0px; margin: 0px;&quot;&gt;&amp;nbsp;+ set_contacts(phone: String, telegram: String, email: String): void&amp;nbsp;&lt;br style=&quot;padding: 0px; margin: 0px;&quot;&gt;&amp;nbsp;+ validate?(): Boolean&amp;nbsp;&lt;br style=&quot;padding: 0px; margin: 0px;&quot;&gt;&amp;nbsp;+ get_info(): String&amp;nbsp;&lt;div&gt;&amp;nbsp;- self.validate_fio(name: String): Boolean&amp;nbsp;&lt;br style=&quot;padding: 0px; margin: 0px;&quot;&gt;&amp;nbsp;- self.validate_phone(phone: String): Boolean&amp;nbsp;&lt;br style=&quot;padding: 0px; margin: 0px;&quot;&gt;&amp;nbsp;- self.validate_email(email: String): Boolean&amp;nbsp;&lt;br style=&quot;padding: 0px; margin: 0px;&quot;&gt;&amp;nbsp;- self.validate_telegram(telegram: String): Boolean&amp;nbsp;&lt;br style=&quot;padding: 0px; margin: 0px;&quot;&gt;&amp;nbsp;- phone=(phone: String): void&amp;nbsp;&lt;br style=&quot;padding: 0px; margin: 0px;&quot;&gt;&amp;nbsp;- email=(email: String): void&amp;nbsp;&lt;br style=&quot;padding: 0px; margin: 0px;&quot;&gt;&amp;nbsp;- telegram=(telegram: String): void&amp;nbsp;&lt;br style=&quot;padding: 0px; margin: 0px;&quot;&gt;&amp;nbsp;- name=(name: String): void&amp;nbsp;&lt;br style=&quot;padding: 0px; margin: 0px;&quot;&gt;&amp;nbsp;- surname=(surname: String): void&amp;nbsp;&lt;br style=&quot;padding: 0px; margin: 0px;&quot;&gt;&amp;nbsp;- patronymic=(patronymic: String): void&lt;br&gt;&lt;/div&gt;" style="text;whiteSpace=wrap;html=1;" parent="YdfoZle_23-KYAX8LXXO-3" vertex="1">
          <mxGeometry y="128" width="430" height="302" as="geometry" />
        </mxCell>
        <mxCell id="YdfoZle_23-KYAX8LXXO-11" value="Student_short" style="swimlane;fontStyle=1;align=center;verticalAlign=top;childLayout=stackLayout;horizontal=1;startSize=26;horizontalStack=0;resizeParent=1;resizeParentMax=0;resizeLast=0;collapsible=1;marginBottom=0;whiteSpace=wrap;html=1;" parent="WIyWlLk6GJQsqaUBKTNV-1" vertex="1">
          <mxGeometry x="470" y="280" width="320" height="120" as="geometry" />
        </mxCell>
        <mxCell id="YdfoZle_23-KYAX8LXXO-15" value="- surname_initials: String&lt;div&gt;- contact: String&lt;br&gt;&lt;/div&gt;" style="text;strokeColor=none;fillColor=none;align=left;verticalAlign=top;spacingLeft=4;spacingRight=4;overflow=hidden;rotatable=0;points=[[0,0.5],[1,0.5]];portConstraint=eastwest;whiteSpace=wrap;html=1;" parent="YdfoZle_23-KYAX8LXXO-11" vertex="1">
          <mxGeometry y="26" width="320" height="44" as="geometry" />
        </mxCell>
        <mxCell id="YdfoZle_23-KYAX8LXXO-13" value="" style="line;strokeWidth=1;fillColor=none;align=left;verticalAlign=middle;spacingTop=-1;spacingLeft=3;spacingRight=3;rotatable=0;labelPosition=right;points=[];portConstraint=eastwest;strokeColor=inherit;" parent="YdfoZle_23-KYAX8LXXO-11" vertex="1">
          <mxGeometry y="70" width="320" height="8" as="geometry" />
        </mxCell>
        <mxCell id="YdfoZle_23-KYAX8LXXO-14" value="+ initialize(student: BaseStudent, contact: String)&lt;br style=&quot;padding: 0px; margin: 0px;&quot;&gt;+ to_s: String" style="text;strokeColor=none;fillColor=none;align=left;verticalAlign=top;spacingLeft=4;spacingRight=4;overflow=hidden;rotatable=0;points=[[0,0.5],[1,0.5]];portConstraint=eastwest;whiteSpace=wrap;html=1;" parent="YdfoZle_23-KYAX8LXXO-11" vertex="1">
          <mxGeometry y="78" width="320" height="42" as="geometry" />
        </mxCell>
      </root>
    </mxGraphModel>
  </diagram>
</mxfile>
